<?xml version="1.0" encoding="UTF-8"?><svg xmlns="http://www.w3.org/2000/svg" width="7px" height="14px" viewBox="0 0 7 14" version="1.1"><g><path d="M 7 6.984375 C 7 6.734375 6.917969 6.488281 6.761719 6.285156 L 1.484375 0.28125 C 1.335938 0.09375 1.113281 -0.0117188 0.875 -0.0117188 C 0.636719 -0.0117188 0.414062 0.09375 0.265625 0.28125 C -0.0703125 0.679688 -0.0703125 1.265625 0.265625 1.664062 L 4.929688 6.984375 L 0.265625 12.304688 C -0.0703125 12.707031 -0.0703125 13.289062 0.265625 13.691406 C 0.417969 13.871094 0.640625 13.976562 0.875 13.976562 C 1.109375 13.976562 1.332031 13.871094 1.484375 13.691406 L 6.761719 7.671875 C 6.925781 7.480469 7.007812 7.238281 7 6.984375 Z M 7 6.984375 "/></g></svg>